<?xml version="1.0" standalone="no"?><!DOCTYPE svg PUBLIC "-//W3C//DTD SVG 1.1//EN" "http://www.w3.org/Graphics/SVG/1.1/DTD/svg11.dtd"><svg t="1597731994642" class="icon" viewBox="0 0 1024 1024" version="1.1" xmlns="http://www.w3.org/2000/svg" p-id="1181" xmlns:xlink="http://www.w3.org/1999/xlink" width="200" height="200"><defs><style type="text/css"></style></defs><path d="M0 837.818182c0 25.716364 20.712727 46.545455 46.592 46.545454h651.543273A46.452364 46.452364 0 0 0 744.727273 837.818182c0-25.716364-20.712727-46.545455-46.592-46.545455H46.592A46.452364 46.452364 0 0 0 0 837.818182z m0-325.818182c0 25.716364 20.712727 46.545455 46.545455 46.545455h744.727272c25.716364 0 46.545455-20.666182 46.545455-46.545455 0-25.716364-20.712727-46.545455-46.545455-46.545455H46.545455c-25.716364 0-46.545455 20.666182-46.545455 46.545455zM0 186.181818c0 25.716364 20.922182 46.545455 46.661818 46.545455h930.676364A46.498909 46.498909 0 0 0 1024 186.181818c0-25.716364-20.922182-46.545455-46.661818-46.545454H46.661818A46.498909 46.498909 0 0 0 0 186.181818z" fill="#9099B0" p-id="1182"></path></svg>