<?xml version="1.0" standalone="no"?><!DOCTYPE svg PUBLIC "-//W3C//DTD SVG 1.1//EN" "http://www.w3.org/Graphics/SVG/1.1/DTD/svg11.dtd"><svg t="1597732004537" class="icon" viewBox="0 0 1024 1024" version="1.1" xmlns="http://www.w3.org/2000/svg" p-id="1320" xmlns:xlink="http://www.w3.org/1999/xlink" width="200" height="200"><defs><style type="text/css"></style></defs><path d="M17.567502 1006.492762a59.496409 59.496409 0 0 1 0.056852-84.397916l254.35923-254.359229a59.524835 59.524835 0 0 1 84.397916-0.056853c23.30963 23.30963 23.480188 60.889301-0.056853 84.426343l-254.359229 254.330803c-23.30963 23.30963-60.946154 23.508615-84.426343 0.056852z m167.260807-588.99455C184.828309 186.903435 372.556109 0 604.117383 0 835.621805 0 1023.349604 186.903435 1023.349604 417.498212c0 230.537925-187.699373 417.469786-419.260647 417.469786-231.532848 0-419.260648-186.903435-419.260648-417.469786z m718.732539 0c0-164.702434-134.087225-298.192704-299.471891-298.192704-165.384667 0-299.471891 133.490271-299.471891 298.192704 0 164.674007 134.087225 298.192704 299.471891 298.192704 165.384667 0 299.471891-133.518697 299.471891-298.192704z" fill="#9099B0" p-id="1321"></path></svg>